<?xml version="1.0" encoding="UTF-8" standalone="no"?>
<!-- Created with Inkscape (http://www.inkscape.org/) -->

<svg
   width="210mm"
   height="297mm"
   viewBox="0 0 210 297"
   version="1.1"
   id="svg1"
   inkscape:export-filename="ATOMIKA.png"
   inkscape:export-xdpi="96"
   inkscape:export-ydpi="96"
   inkscape:version="1.3.2 (1:1.3.2+202311252150+091e20ef0f)"
   sodipodi:docname="ATOMIKA.svg"
   xmlns:inkscape="http://www.inkscape.org/namespaces/inkscape"
   xmlns:sodipodi="http://sodipodi.sourceforge.net/DTD/sodipodi-0.dtd"
   xmlns="http://www.w3.org/2000/svg"
   xmlns:svg="http://www.w3.org/2000/svg">
  <sodipodi:namedview
     id="namedview1"
     pagecolor="#ffffff"
     bordercolor="#000000"
     borderopacity="0.25"
     inkscape:showpageshadow="2"
     inkscape:pageopacity="0.0"
     inkscape:pagecheckerboard="0"
     inkscape:deskcolor="#d1d1d1"
     inkscape:document-units="mm"
     inkscape:zoom="0.46502525"
     inkscape:cx="398.90307"
     inkscape:cy="559.10942"
     inkscape:window-width="1294"
     inkscape:window-height="704"
     inkscape:window-x="72"
     inkscape:window-y="27"
     inkscape:window-maximized="1"
     inkscape:current-layer="layer1" />
  <defs
     id="defs1">
    <inkscape:path-effect
       effect="bspline"
       id="path-effect12"
       is_visible="true"
       lpeversion="1.3"
       weight="33.333333"
       steps="2"
       helper_size="0"
       apply_no_weight="true"
       apply_with_weight="true"
       only_selected="false"
       uniform="false" />
    <inkscape:path-effect
       effect="bspline"
       id="path-effect22"
       is_visible="true"
       lpeversion="1.3"
       weight="33.333333"
       steps="2"
       helper_size="0"
       apply_no_weight="true"
       apply_with_weight="true"
       only_selected="false"
       uniform="false" />
    <inkscape:path-effect
       effect="bspline"
       id="path-effect20"
       is_visible="true"
       lpeversion="1.3"
       weight="33.333333"
       steps="2"
       helper_size="0"
       apply_no_weight="true"
       apply_with_weight="true"
       only_selected="false"
       uniform="false" />
    <inkscape:path-effect
       effect="bspline"
       id="path-effect14"
       is_visible="true"
       lpeversion="1.3"
       weight="33.333333"
       steps="2"
       helper_size="0"
       apply_no_weight="true"
       apply_with_weight="true"
       only_selected="false"
       uniform="false" />
    <inkscape:path-effect
       effect="bspline"
       id="path-effect18"
       is_visible="true"
       lpeversion="1.3"
       weight="33.333333"
       steps="2"
       helper_size="0"
       apply_no_weight="true"
       apply_with_weight="true"
       only_selected="false"
       uniform="false" />
    <inkscape:path-effect
       effect="bspline"
       id="path-effect16"
       is_visible="true"
       lpeversion="1.3"
       weight="33.333333"
       steps="2"
       helper_size="0"
       apply_no_weight="true"
       apply_with_weight="true"
       only_selected="false"
       uniform="false" />
    <inkscape:path-effect
       effect="bspline"
       id="path-effect26"
       is_visible="true"
       lpeversion="1.3"
       weight="33.333333"
       steps="2"
       helper_size="0"
       apply_no_weight="true"
       apply_with_weight="true"
       only_selected="false"
       uniform="false" />
    <inkscape:path-effect
       effect="bspline"
       id="path-effect29"
       is_visible="true"
       lpeversion="1.3"
       weight="33.333333"
       steps="2"
       helper_size="0"
       apply_no_weight="true"
       apply_with_weight="true"
       only_selected="false"
       uniform="false" />
    <inkscape:path-effect
       effect="bspline"
       id="path-effect30"
       is_visible="true"
       lpeversion="1.3"
       weight="33.333333"
       steps="2"
       helper_size="0"
       apply_no_weight="true"
       apply_with_weight="true"
       only_selected="false"
       uniform="false" />
    <inkscape:path-effect
       effect="bspline"
       id="path-effect31"
       is_visible="true"
       lpeversion="1.3"
       weight="33.333333"
       steps="2"
       helper_size="0"
       apply_no_weight="true"
       apply_with_weight="true"
       only_selected="false"
       uniform="false" />
    <inkscape:path-effect
       effect="bspline"
       id="path-effect32"
       is_visible="true"
       lpeversion="1.3"
       weight="33.333333"
       steps="2"
       helper_size="0"
       apply_no_weight="true"
       apply_with_weight="true"
       only_selected="false"
       uniform="false" />
    <inkscape:path-effect
       effect="bspline"
       id="path-effect33"
       is_visible="true"
       lpeversion="1.3"
       weight="33.333333"
       steps="2"
       helper_size="0"
       apply_no_weight="true"
       apply_with_weight="true"
       only_selected="false"
       uniform="false" />
    <inkscape:path-effect
       effect="bspline"
       id="path-effect10"
       is_visible="true"
       lpeversion="1.3"
       weight="33.333333"
       steps="2"
       helper_size="0"
       apply_no_weight="true"
       apply_with_weight="true"
       only_selected="false"
       uniform="false" />
  </defs>
  <g
     inkscape:label="Layer 1"
     inkscape:groupmode="layer"
     id="layer1">
    <g
       id="g34"
       transform="matrix(0.88758277,0,0,0.88758277,-398.39494,5.3644466)">
      <path
         style="fill:#381b1d;fill-opacity:1;stroke:none;stroke-width:0.483;stroke-linejoin:round;stroke-miterlimit:3.3;stroke-dasharray:none;stroke-opacity:1;paint-order:markers stroke fill"
         d="m 390.57042,186.02727 c 0,0 0.0495,-87.048625 0.0495,-87.048625 0,0 38.32977,-0.512814 38.32977,-0.512814 0.11568,2.452789 0.23135,4.905569 0.30111,8.227469 0.0697,3.3219 0.0983,8.35107 -0.0477,13.12 -0.14604,4.76893 -0.61273,14.04619 -2.47127,20.97882 -1.85855,6.93262 -5.18652,13.06636 -8.3016,17.97638 -3.11509,4.91002 -6.0169,8.59571 -9.08205,11.94526 -3.06515,3.34954 -6.29326,6.36254 -9.45015,8.85878 -3.15689,2.49624 -6.24223,4.47546 -9.32763,6.45473 z"
         id="path11"
         inkscape:path-effect="#path-effect12"
         inkscape:original-d="m 390.57042,186.02727 0.0495,-87.048625 38.32977,-0.512814 c 0,0 0.23135,4.905569 0.34703,7.358359 0.0238,4.19101 0.0525,9.22018 0.0715,12.57304 -0.31114,6.185 -0.77783,15.46226 -1.16674,23.1934 -3.32818,6.13411 -6.65615,12.26785 -9.98433,18.40197 -2.90199,3.68592 -5.8038,7.37161 -8.70579,11.05753 -3.22831,3.01317 -6.45642,6.02617 -9.68473,9.03934 -3.08547,1.97931 -9.25621,5.9378 -9.25621,5.9378 z"
         sodipodi:nodetypes="cccccccccc"
         transform="translate(213.98844,-2.4963533)" />
      <path
         style="fill:#381b1d;fill-opacity:1;stroke:none;stroke-width:0.483;stroke-linejoin:round;stroke-miterlimit:3.3;stroke-dasharray:none;stroke-opacity:1;paint-order:markers stroke fill"
         d="m 390.57042,186.02727 c 0,0 0.0495,-87.048625 0.0495,-87.048625 0,0 38.32977,-0.512814 38.32977,-0.512814 0.11568,2.452789 0.23135,4.905569 0.30111,8.227469 0.0697,3.3219 0.0983,8.35107 -0.0477,13.12 -0.14604,4.76893 -0.61273,14.04619 -2.47127,20.97882 -1.85855,6.93262 -5.18652,13.06636 -8.3016,17.97638 -3.11509,4.91002 -6.0169,8.59571 -9.08205,11.94526 -3.06515,3.34954 -6.29326,6.36254 -9.45015,8.85878 -3.15689,2.49624 -6.24223,4.47546 -9.32763,6.45473 z"
         id="path20"
         inkscape:path-effect="#path-effect22"
         inkscape:original-d="m 390.57042,186.02727 0.0495,-87.048625 38.32977,-0.512814 c 0,0 0.23135,4.905569 0.34703,7.358359 0.0238,4.19101 0.0525,9.22018 0.0715,12.57304 -0.31114,6.185 -0.77783,15.46226 -1.16674,23.1934 -3.32818,6.13411 -6.65615,12.26785 -9.98433,18.40197 -2.90199,3.68592 -5.8038,7.37161 -8.70579,11.05753 -3.22831,3.01317 -6.45642,6.02617 -9.68473,9.03934 -3.08547,1.97931 -9.25621,5.9378 -9.25621,5.9378 z"
         sodipodi:nodetypes="cccccccccc"
         transform="rotate(90,460.45161,225.07343)" />
      <circle
         style="fill:#0ca4cb;fill-opacity:1;stroke-width:1.38331;stroke-linejoin:round;stroke-miterlimit:3.3;paint-order:markers stroke fill"
         id="path8"
         cx="566.38202"
         cy="114.54763"
         r="20.676857" />
      <path
         style="fill:#381b1d;fill-opacity:1;stroke:none;stroke-width:0.483;stroke-linejoin:round;stroke-miterlimit:3.3;stroke-dasharray:none;stroke-opacity:1;paint-order:markers stroke fill"
         d="m 390.57042,186.02727 c 0,0 0.0495,-87.048625 0.0495,-87.048625 0,0 38.32977,-0.512814 38.32977,-0.512814 0.11568,2.452789 0.23135,4.905569 0.30111,8.227469 0.0697,3.3219 0.0983,8.35107 -0.0477,13.12 -0.14604,4.76893 -0.61273,14.04619 -2.47127,20.97882 -1.85855,6.93262 -5.18652,13.06636 -8.3016,17.97638 -3.11509,4.91002 -6.0169,8.59571 -9.08205,11.94526 -3.06515,3.34954 -6.29326,6.36254 -9.45015,8.85878 -3.15689,2.49624 -6.24223,4.47546 -9.32763,6.45473 z"
         id="path18"
         inkscape:path-effect="#path-effect20"
         inkscape:original-d="m 390.57042,186.02727 0.0495,-87.048625 38.32977,-0.512814 c 0,0 0.23135,4.905569 0.34703,7.358359 0.0238,4.19101 0.0525,9.22018 0.0715,12.57304 -0.31114,6.185 -0.77783,15.46226 -1.16674,23.1934 -3.32818,6.13411 -6.65615,12.26785 -9.98433,18.40197 -2.90199,3.68592 -5.8038,7.37161 -8.70579,11.05753 -3.22831,3.01317 -6.45642,6.02617 -9.68473,9.03934 -3.08547,1.97931 -9.25621,5.9378 -9.25621,5.9378 z"
         sodipodi:nodetypes="cccccccccc"
         transform="rotate(180,458.56608,116.92174)" />
      <path
         style="fill:#00a4ca;fill-opacity:1;stroke:none;stroke-width:0.183;stroke-linejoin:round;stroke-miterlimit:3.3;stroke-dasharray:none;stroke-opacity:1;paint-order:markers stroke fill"
         d="m 312.78112,156.21207 c -1.0753,-9.63723 -2.15058,-19.27427 -2.46577,-27.45613 -0.31519,-8.18186 0.12973,-14.90801 0.75118,-20.97484 0.62144,-6.06682 1.41932,-11.473697 2.48961,-17.304719 1.07028,-5.831021 2.41288,-12.085726 3.73505,-17.158774 1.32217,-5.073048 2.62372,-8.963797 3.88788,-12.464185 1.26416,-3.500387 2.49042,-6.60902 3.71681,-9.717962 1.2263,1.354317 2.4526,2.708633 3.85982,3.400002 1.40722,0.691369 2.9953,0.719788 4.58341,0.748208 -1.02738,2.440383 -2.05475,4.880767 -3.31304,8.033551 -1.25829,3.152784 -2.74743,7.017815 -3.95951,11.291196 -1.21207,4.273382 -2.14702,8.954846 -2.97349,13.340059 -0.82648,4.385214 -1.54442,8.47383 -2.17878,13.318964 -0.63436,4.84514 -1.18508,10.44631 -1.34401,16.31469 -0.15893,5.86838 0.0739,12.00361 0.32907,17.57616 0.25515,5.57255 0.53255,10.5821 0.84173,13.89826 0.30918,3.31615 0.65012,4.93876 0.99106,6.5614 -1.58327,0.059 -3.16654,0.11797 -4.65839,0.21699 -1.49185,0.099 -2.89223,0.23808 -4.29263,0.37713 z"
         id="path13"
         inkscape:path-effect="#path-effect14"
         inkscape:original-d="m 312.78112,156.21207 c 0,0 -2.15058,-19.27427 -3.2259,-28.9117 0.44494,-6.72629 0.88986,-13.45244 1.33481,-20.17887 0.79794,-5.40722 1.59582,-10.814098 2.39376,-16.221309 1.34263,-6.254831 2.68523,-12.509537 4.02789,-18.764494 1.30168,-3.891138 2.60323,-7.781887 3.90504,-11.673411 1.22651,-3.109251 3.67916,-9.326826 3.67916,-9.326826 0,0 2.4526,2.708633 3.6789,4.06295 1.58814,0.02842 4.76433,0.08526 4.76433,0.08526 0,0 -2.05475,4.880768 -3.08213,7.32115 -1.4892,3.865185 -2.97834,7.730216 -4.46751,11.595325 -0.93499,4.681652 -1.86993,9.363117 -2.80489,14.044676 -0.71799,4.088868 -1.43593,8.177484 -2.15391,12.266349 -0.55074,5.60141 -1.10146,11.20258 -1.65219,16.80386 0.23287,6.13548 0.46573,12.27071 0.6986,18.40607 0.27742,5.00974 0.55482,10.01929 0.83223,15.02893 0.34095,1.62267 1.02283,4.86792 1.02283,4.86792 0,0 -3.16654,0.11797 -4.74981,0.17696 -1.40043,0.13906 -4.20121,0.41716 -4.20121,0.41716 z"
         sodipodi:nodetypes="ccccccccccccccccccc"
         transform="rotate(-120.04765,458.31908,51.784135)" />
      <path
         style="fill:#381b1d;fill-opacity:1;stroke:none;stroke-width:0.483;stroke-linejoin:round;stroke-miterlimit:3.3;stroke-dasharray:none;stroke-opacity:1;paint-order:markers stroke fill"
         d="m 390.57042,186.02727 c 0,0 0.0495,-87.048625 0.0495,-87.048625 0,0 38.32977,-0.512814 38.32977,-0.512814 0.11568,2.452789 0.23135,4.905569 0.30111,8.227469 0.0697,3.3219 0.0983,8.35107 -0.0477,13.12 -0.14604,4.76893 -0.61273,14.04619 -2.47127,20.97882 -1.85855,6.93262 -5.18652,13.06636 -8.3016,17.97638 -3.11509,4.91002 -6.0169,8.59571 -9.08205,11.94526 -3.06515,3.34954 -6.29326,6.36254 -9.45015,8.85878 -3.15689,2.49624 -6.24223,4.47546 -9.32763,6.45473 z"
         id="path16"
         inkscape:path-effect="#path-effect18"
         inkscape:original-d="m 390.57042,186.02727 0.0495,-87.048625 38.32977,-0.512814 c 0,0 0.23135,4.905569 0.34703,7.358359 0.0238,4.19101 0.0525,9.22018 0.0715,12.57304 -0.31114,6.185 -0.77783,15.46226 -1.16674,23.1934 -3.32818,6.13411 -6.65615,12.26785 -9.98433,18.40197 -2.90199,3.68592 -5.8038,7.37161 -8.70579,11.05753 -3.22831,3.01317 -6.45642,6.02617 -9.68473,9.03934 -3.08547,1.97931 -9.25621,5.9378 -9.25621,5.9378 z"
         sodipodi:nodetypes="cccccccccc"
         transform="rotate(-90,458.21301,9.584312)" />
      <path
         style="fill:#00a4ca;fill-opacity:1;stroke:none;stroke-width:0.183;stroke-linejoin:round;stroke-miterlimit:3.3;stroke-dasharray:none;stroke-opacity:1;paint-order:markers stroke fill"
         d="m 312.78112,156.21207 c -1.0753,-9.63723 -2.15058,-19.27427 -2.46577,-27.45613 -0.31519,-8.18186 0.12973,-14.90801 0.75118,-20.97484 0.62144,-6.06682 1.41932,-11.473697 2.48961,-17.304719 1.07028,-5.831021 2.41288,-12.085726 3.73505,-17.158774 1.32217,-5.073048 2.62372,-8.963797 3.88788,-12.464185 1.26416,-3.500387 2.49042,-6.60902 3.71681,-9.717962 1.2263,1.354317 2.4526,2.708633 3.85982,3.400002 1.40722,0.691369 2.9953,0.719788 4.58341,0.748208 -1.02738,2.440383 -2.05475,4.880767 -3.31304,8.033551 -1.25829,3.152784 -2.74743,7.017815 -3.95951,11.291196 -1.21207,4.273382 -2.14702,8.954846 -2.97349,13.340059 -0.82648,4.385214 -1.54442,8.47383 -2.17878,13.318964 -0.63436,4.84514 -1.18508,10.44631 -1.34401,16.31469 -0.15893,5.86838 0.0739,12.00361 0.32907,17.57616 0.25515,5.57255 0.53255,10.5821 0.84173,13.89826 0.30918,3.31615 0.65012,4.93876 0.99106,6.5614 -1.58327,0.059 -3.16654,0.11797 -4.65839,0.21699 -1.49185,0.099 -2.89223,0.23808 -4.29263,0.37713 z"
         id="path14"
         inkscape:path-effect="#path-effect16"
         inkscape:original-d="m 312.78112,156.21207 c 0,0 -2.15058,-19.27427 -3.2259,-28.9117 0.44494,-6.72629 0.88986,-13.45244 1.33481,-20.17887 0.79794,-5.40722 1.59582,-10.814098 2.39376,-16.221309 1.34263,-6.254831 2.68523,-12.509537 4.02789,-18.764494 1.30168,-3.891138 2.60323,-7.781887 3.90504,-11.673411 1.22651,-3.109251 3.67916,-9.326826 3.67916,-9.326826 0,0 2.4526,2.708633 3.6789,4.06295 1.58814,0.02842 4.76433,0.08526 4.76433,0.08526 0,0 -2.05475,4.880768 -3.08213,7.32115 -1.4892,3.865185 -2.97834,7.730216 -4.46751,11.595325 -0.93499,4.681652 -1.86993,9.363117 -2.80489,14.044676 -0.71799,4.088868 -1.43593,8.177484 -2.15391,12.266349 -0.55074,5.60141 -1.10146,11.20258 -1.65219,16.80386 0.23287,6.13548 0.46573,12.27071 0.6986,18.40607 0.27742,5.00974 0.55482,10.01929 0.83223,15.02893 0.34095,1.62267 1.02283,4.86792 1.02283,4.86792 0,0 -3.16654,0.11797 -4.74981,0.17696 -1.40043,0.13906 -4.20121,0.41716 -4.20121,0.41716 z"
         sodipodi:nodetypes="ccccccccccccccccccc"
         transform="rotate(119.42252,459.77374,177.93066)" />
      <circle
         style="fill:#0ca4cb;fill-opacity:1;stroke-width:1.38331;stroke-linejoin:round;stroke-miterlimit:3.3;paint-order:markers stroke fill"
         id="circle22"
         cx="548.95435"
         cy="41.014275"
         r="9.4297962" />
      <circle
         style="fill:#0ca4cb;fill-opacity:1;stroke-width:1.38331;stroke-linejoin:round;stroke-miterlimit:3.3;paint-order:markers stroke fill"
         id="circle23"
         cx="512.53351"
         cy="164.14719"
         r="9.4297962" />
      <circle
         style="fill:#0ca4cb;fill-opacity:1;stroke-width:1.38331;stroke-linejoin:round;stroke-miterlimit:3.3;paint-order:markers stroke fill"
         id="circle24"
         cx="639.06866"
         cy="134.83417"
         r="9.4297962" />
      <g
         id="g33"
         transform="translate(215.78975,-2.1622027)"
         style="fill:#0ca4cb;fill-opacity:1">
        <path
           style="fill:#0ca4cb;fill-opacity:1;stroke:none;stroke-width:0.183;stroke-linejoin:round;stroke-miterlimit:3.3;stroke-dasharray:none;stroke-opacity:1;paint-order:markers stroke fill"
           d="m 320.09329,56.776764 c -5.57784,-1.412544 -11.15568,-2.825089 -16.7833,-3.447773 -5.62762,-0.622684 -11.3048,-0.455515 -16.20336,0.293558 -4.89856,0.749072 -9.01822,2.07999 -12.46989,4.335753 -3.45166,2.255763 -6.23514,5.436221 -7.42951,9.284204 -1.19438,3.847982 -0.79961,8.363247 -0.0394,12.571426 0.76017,4.208178 1.88569,8.109022 3.74667,11.877056 1.86098,3.768034 4.45729,7.403038 7.19228,11.134252 2.73498,3.73121 5.60847,7.5584 9.3442,11.71355 3.73574,4.15514 8.33347,8.63799 12.93129,13.12092 -4.7225,-5.4533 -9.44499,-10.9066 -13.66584,-16.61553 -4.22085,-5.70894 -7.93991,-11.673262 -10.17612,-17.213841 -2.23622,-5.540579 -2.98947,-10.657083 -2.40935,-14.938291 0.58012,-4.281209 2.49356,-7.726884 5.35206,-10.226576 2.8585,-2.499693 6.66187,-4.053273 10.81554,-4.91419 4.15367,-0.860917 8.65738,-1.029132 13.14745,-0.509494 4.49007,0.519639 8.96624,1.727087 13.44249,2.934558 z"
           id="path26"
           inkscape:path-effect="#path-effect26"
           inkscape:original-d="m 320.09329,56.776764 c 0,0 -11.15568,-2.825089 -16.73352,-4.237633 -5.6774,0.167176 -11.35458,0.334345 -17.03187,0.501518 -4.11983,1.330972 -8.23949,2.661891 -12.35924,3.992836 -2.78358,3.180583 -5.56706,6.361038 -8.35059,9.541558 0.39478,4.515445 0.78955,9.03071 1.18432,13.546066 1.12557,3.901 2.25109,7.801844 3.37663,11.702766 2.59642,3.635146 5.19274,7.270147 7.7891,10.905225 2.87361,3.82734 5.74709,7.65454 8.62064,11.48181 4.59792,4.48302 13.79347,13.4488 13.79347,13.4488 0,0 -9.44499,-10.9066 -14.16749,-16.35991 -3.7192,-5.96456 -7.43826,-11.928885 -11.1574,-17.893329 -0.75329,-5.11671 -1.50654,-10.233215 -2.25981,-15.349823 1.91351,-3.445811 3.82695,-6.891485 5.74043,-10.337227 3.80352,-1.553643 7.60689,-3.107223 11.41034,-4.660835 4.50389,-0.168221 9.0076,-0.336436 13.5114,-0.504654 4.47634,1.207495 13.42876,3.622414 13.42876,3.622414 z"
           sodipodi:nodetypes="cccccccccccccccccc" />
        <path
           style="fill:#0ca4cb;fill-opacity:1;stroke:none;stroke-width:0.183;stroke-linejoin:round;stroke-miterlimit:3.3;stroke-dasharray:none;stroke-opacity:1;paint-order:markers stroke fill"
           d="m 285.68474,170.40516 c -3.7893,-1.1178 -7.5786,-2.2356 -10.88064,-3.96929 -3.30204,-1.7337 -6.1167,-4.0832 -8.30507,-6.90345 -2.18837,-2.82025 -3.7503,-6.11102 -3.81803,-10.13107 -0.0677,-4.02004 1.35876,-8.7689 3.00952,-12.60053 1.65076,-3.83164 3.52564,-6.74566 5.5888,-9.62661 2.06316,-2.88096 4.31448,-5.72867 7.22914,-8.90262 2.91466,-3.17394 6.49239,-6.67384 9.67552,-9.54447 3.18314,-2.87064 5.97129,-5.11164 9.36403,-7.7208 3.39275,-2.609161 7.38977,-5.586215 11.38686,-8.563327 -3.51304,2.847289 -7.02608,5.694577 -10.19671,8.287107 -3.17064,2.59252 -5.99876,4.9302 -8.91657,7.73789 -2.91781,2.80769 -5.92512,6.08523 -8.42512,8.90538 -2.49999,2.82015 -4.49249,5.18271 -6.32814,8.05202 -1.83566,2.86931 -3.51427,6.24504 -4.5536,9.96165 -1.03933,3.71661 -1.43927,7.77375 -0.72939,11.14556 0.70988,3.37181 2.52948,6.05804 4.52039,8.02336 1.99091,1.96533 4.1529,3.20951 6.40425,4.08677 2.25135,0.87727 4.59183,1.38753 6.93236,1.8978 z"
           id="path28"
           inkscape:path-effect="#path-effect29"
           inkscape:original-d="m 285.68474,170.40516 c 0,0 -7.5786,-2.2356 -11.36791,-3.3534 -2.81477,-2.34959 -5.62943,-4.69909 -8.44415,-7.04863 -1.56202,-3.29096 -3.12395,-6.58173 -4.68597,-9.87269 1.42657,-4.74913 2.85305,-9.49799 4.27962,-14.24712 1.87495,-2.91414 3.74983,-5.82816 5.62474,-8.74223 2.25141,-2.84784 4.50273,-5.69555 6.7541,-8.54333 3.57795,-3.50011 7.15568,-7.00001 10.73363,-10.50013 2.78832,-2.24115 5.57647,-4.48215 8.36479,-6.7233 3.99717,-2.977173 11.99128,-8.931337 11.99128,-8.931337 0,0 -7.02608,5.694576 -10.53912,8.541867 -2.82823,2.33776 -5.65635,4.67544 -8.48453,7.01316 -3.00744,3.27766 -6.01475,6.5552 -9.02213,9.8328 -1.99261,2.3627 -3.98511,4.72526 -5.97772,7.08796 -1.6787,3.37592 -3.3573,6.75165 -5.03601,10.12757 -0.39995,4.0573 -0.7999,8.11444 -1.19985,12.17166 1.81971,2.6864 3.63931,5.37263 5.45902,8.05903 2.16211,1.24425 4.3241,2.48843 6.48622,3.73268 2.34058,0.51028 7.02159,1.53081 7.02159,1.53081 z"
           sodipodi:nodetypes="cccccccccccccccccccc" />
        <path
           style="fill:#0ca4cb;fill-opacity:1;stroke:none;stroke-width:0.183;stroke-linejoin:round;stroke-miterlimit:3.3;stroke-dasharray:none;stroke-opacity:1;paint-order:markers stroke fill"
           d="m 315.97093,171.95388 c 1.09679,4.20519 2.19358,8.41039 3.62546,12.42817 1.43188,4.01779 3.19877,7.84801 5.36545,11.63166 2.16668,3.78366 4.73302,7.52054 7.00888,10.24887 2.27585,2.72833 4.26109,4.44798 6.6925,5.82359 2.43141,1.37562 5.30883,2.40712 8.18308,2.6279 2.87425,0.22077 5.74516,-0.36918 8.57953,-1.78321 2.83437,-1.41403 5.63203,-3.65203 8.58475,-6.83928 2.95273,-3.18725 6.06033,-7.32353 8.82366,-12.00337 2.76332,-4.67983 5.1822,-9.90292 7.10421,-14.69896 1.92201,-4.79603 3.34703,-9.16474 4.68975,-13.83257 1.34272,-4.66783 2.60305,-9.6345 3.8634,-14.60127 -2.279,7.45041 -4.55801,14.90083 -6.80249,20.86928 -2.24447,5.96846 -4.45434,10.45478 -6.71609,14.48315 -2.26175,4.02836 -4.57524,7.59854 -7.1094,10.31785 -2.53415,2.71931 -5.2888,4.58759 -7.91898,5.93438 -2.63018,1.34679 -5.13573,2.17202 -7.92616,2.17955 -2.79043,0.008 -5.86556,-0.80263 -8.66537,-2.44409 -2.79981,-1.64146 -5.32412,-4.11412 -7.86728,-7.84871 -2.54315,-3.7346 -5.10499,-8.7309 -6.82026,-12.99369 -1.71527,-4.26279 -2.58388,-7.79185 -3.45251,-11.32097 z"
           id="path29"
           inkscape:path-effect="#path-effect30"
           inkscape:original-d="m 315.97093,171.95388 c 0,0 2.19358,8.41039 3.29037,12.61558 1.76696,3.83038 3.53386,7.6606 5.30079,11.49089 2.56643,3.73702 5.13277,7.4739 7.69915,11.21084 1.98533,1.71972 3.97057,3.43937 5.95586,5.15905 2.87753,1.03155 5.75495,2.06305 8.63242,3.09458 2.87103,-0.58998 5.74194,-1.17993 8.6129,-1.7699 2.79778,-2.23809 5.59544,-4.47609 8.39316,-6.71414 3.10773,-4.13645 6.21534,-8.27273 9.323,-12.4091 2.41898,-5.2233 4.83786,-10.44639 7.25679,-15.66958 1.42509,-4.36888 2.85011,-8.73759 4.27517,-13.10638 1.26038,-4.96687 3.78106,-14.90031 3.78106,-14.90031 0,0 -4.558,14.90083 -6.83701,22.35124 -2.20995,4.4865 -4.41982,8.97282 -6.62973,13.45923 -2.31359,3.57032 -4.62708,7.1405 -6.94063,10.71076 -2.75476,1.86836 -5.50941,3.73664 -8.26412,5.60496 -2.50565,0.82527 -5.0112,1.6505 -7.5168,2.47574 -3.07526,-0.81019 -6.15039,-1.62034 -9.22559,-2.43052 -2.52442,-2.47275 -5.04873,-4.94541 -7.5731,-7.41811 -2.56194,-4.99649 -5.12378,-9.99279 -7.68567,-14.98918 -0.86865,-3.52919 -2.60589,-10.58737 -2.60589,-10.58737 z"
           sodipodi:nodetypes="cccccccccccccccccccccc" />
        <path
           style="fill:#0ca4cb;fill-opacity:1;stroke:none;stroke-width:0.183;stroke-linejoin:round;stroke-miterlimit:3.3;stroke-dasharray:none;stroke-opacity:1;paint-order:markers stroke fill"
           d="m 433.17221,145.21396 c 1.32655,3.70222 2.6531,7.40444 3.08712,11.19275 0.43401,3.7883 -0.0245,7.66254 -1.32629,11.01454 -1.30181,3.352 -3.44682,6.18157 -6.47215,8.27297 -3.02533,2.0914 -6.93079,3.44452 -11.50969,3.97946 -4.5789,0.53494 -9.83096,0.25169 -14.74883,-0.2549 -4.91787,-0.50659 -9.50126,-1.23649 -14.3708,-2.43655 -4.86955,-1.20006 -10.02486,-2.87017 -15.46119,-4.86476 -5.43633,-1.9946 -11.15315,-4.31348 -16.87008,-6.63241 7.59736,2.6938 15.19472,5.3876 21.66304,7.26865 6.46832,1.88106 11.80739,2.94932 17.72288,3.53829 5.9155,0.58896 12.40692,0.6986 17.43273,-0.44377 5.02582,-1.14236 8.58544,-3.53659 10.69897,-6.3259 2.11354,-2.78931 2.78075,-5.97341 2.91396,-8.91886 0.13321,-2.94545 -0.26757,-5.65207 -0.73541,-7.58451 -0.46785,-1.93243 -1.00272,-3.09058 -1.5376,-4.24875 z"
           id="path30"
           inkscape:path-effect="#path-effect31"
           inkscape:original-d="m 433.17221,145.21396 c 0,0 2.6531,7.40444 3.97965,11.10666 -0.45852,3.87439 -0.91702,7.74863 -1.37553,11.62295 -2.1451,2.82968 -4.29011,5.65925 -6.43517,8.48888 -3.9056,1.35317 -7.81106,2.70628 -11.71659,4.05943 -5.25227,-0.28326 -10.50433,-0.56651 -15.75649,-0.84976 -4.58358,-0.72993 -9.16697,-1.45983 -13.75046,-2.18975 -5.1556,-1.6702 -10.31091,-3.34031 -15.46652,-5.01052 -5.71705,-2.31897 -17.1508,-6.95679 -17.1508,-6.95679 0,0 15.19472,5.3876 22.79208,8.0814 5.33928,1.06831 10.67835,2.13657 16.01752,3.20486 6.49182,0.10964 12.98324,0.21928 19.47504,0.32892 3.55983,-2.39437 7.11945,-4.7886 10.67928,-7.18298 0.66724,-3.18424 1.33444,-6.36834 2.00167,-9.55252 -0.4008,-2.70672 -0.80158,-5.41334 -1.20237,-8.12001 -0.5349,-1.1582 -1.60465,-3.47452 -1.60465,-3.47452 z"
           sodipodi:nodetypes="ccccccccccccccccc" />
        <path
           style="fill:#0ca4cb;fill-opacity:1;stroke:none;stroke-width:0.183;stroke-linejoin:round;stroke-miterlimit:3.3;stroke-dasharray:none;stroke-opacity:1;paint-order:markers stroke fill"
           d="m 418.89847,116.93326 c 2.3382,-2.2446 4.67639,-4.4892 7.2385,-7.38912 2.5621,-2.89992 5.34799,-6.45501 7.73949,-10.164167 2.3915,-3.709157 4.38847,-7.572152 5.71417,-11.758701 1.32571,-4.186549 1.98008,-8.696397 1.63043,-12.393498 -0.34966,-3.697101 -1.70331,-6.581251 -3.47165,-8.823104 -1.76834,-2.241853 -3.95128,-3.841296 -6.8168,-5.087197 -2.86553,-1.245901 -6.41347,-2.1382 -11.4364,-2.822334 -5.02293,-0.684134 -11.52052,-1.160067 -17.25553,-1.014714 -5.73502,0.145352 -10.70703,0.911952 -15.44587,1.82639 -4.73884,0.914438 -9.24395,1.976605 -14.28477,3.312079 -5.04083,1.335473 -10.61689,2.944128 -16.19306,4.552814 4.08142,-0.928949 8.16284,-1.857898 12.94734,-2.908274 4.7845,-1.050377 10.27186,-2.222134 15.43715,-3.090499 5.1653,-0.868365 10.00822,-1.433293 14.82481,-1.574569 4.8166,-0.141277 9.60657,0.141101 13.7935,0.75519 4.18692,0.61409 7.77057,1.559849 10.23479,3.027054 2.46423,1.467204 3.8089,3.455753 4.96437,5.424125 1.15547,1.968372 2.12166,3.916413 2.29536,6.688362 0.1737,2.77195 -0.44511,6.367482 -1.70381,10.191817 -1.2587,3.824334 -3.15714,7.877014 -6.05121,12.061254 -2.89407,4.184242 -6.7835,8.499632 -10.67301,12.815102 z"
           id="path31"
           inkscape:path-effect="#path-effect32"
           inkscape:original-d="m 418.89847,116.93326 c 0,0 4.67639,-4.4892 7.01459,-6.7338 2.78601,-3.55524 5.5719,-7.11033 8.35785,-10.665495 1.99705,-3.863149 3.99402,-7.726144 5.99103,-11.589216 0.6544,-4.510026 1.30878,-9.019873 1.96316,-13.52981 -1.3537,-2.884266 -2.70735,-5.768414 -4.06102,-8.652625 -2.18301,-1.599498 -4.36595,-3.198938 -6.54892,-4.798407 -3.54808,-0.892334 -7.09602,-1.784633 -10.64402,-2.676949 -6.49786,-0.475952 -12.99545,-0.951885 -19.49317,-1.427828 -4.97231,0.766646 -9.94432,1.533247 -14.91663,2.299894 -4.50537,1.06223 -9.01048,2.124396 -13.51585,3.186625 -5.57628,1.608718 -16.72851,4.826059 -16.72851,4.826059 0,0 8.16284,-1.857898 12.24426,-2.786847 5.48758,-1.171803 10.97494,-2.343559 16.4624,-3.515339 4.84313,-0.564951 9.68605,-1.12988 14.52908,-1.694821 4.79016,0.282388 9.58013,0.564765 14.37019,0.847148 3.58379,0.945797 7.16744,1.891556 10.75116,2.837334 1.34473,1.98863 2.6894,3.97718 4.0341,5.965771 0.96624,1.948154 1.93243,3.896193 2.89867,5.844348 -0.61884,3.595745 -1.23765,7.191277 -1.85649,10.787022 -1.89856,4.052923 -3.797,8.105605 -5.69556,12.158528 -3.88958,4.315558 -11.66852,12.946418 -11.66852,12.946418 z"
           sodipodi:nodetypes="ccccccccccccccccccccccc" />
        <path
           style="fill:#0ca4cb;fill-opacity:1;stroke:none;stroke-width:0.183;stroke-linejoin:round;stroke-miterlimit:3.3;stroke-dasharray:none;stroke-opacity:1;paint-order:markers stroke fill"
           d="m 336.40734,31.404638 c 2.15926,-2.398737 4.31852,-4.797471 7.28273,-7.114662 2.9642,-2.317191 6.7332,-4.552748 10.06078,-5.487292 3.32757,-0.934545 6.21353,-0.56805 8.63991,0.263562 2.42639,0.831612 4.39306,2.128279 6.50172,4.039366 2.10865,1.911086 4.35918,4.436474 6.51672,7.363831 2.15753,2.927358 4.22195,6.256506 5.70405,9.193923 1.4821,2.937418 2.38177,5.482877 3.35116,8.084231 0.96939,2.601354 2.00839,5.258333 3.1046,9.224042 1.09621,3.965709 2.24956,9.239882 3.07961,15.031725 0.83006,5.791844 1.33679,12.100997 1.84352,18.410276 -0.99058,-5.750616 -1.98117,-11.501232 -2.8739,-16.213413 -0.89274,-4.71218 -1.6876,-8.385779 -2.71604,-12.165429 -1.02844,-3.77965 -2.2904,-7.665124 -3.88053,-11.650974 -1.59013,-3.985851 -3.50833,-8.071835 -5.75611,-11.470477 -2.24778,-3.398641 -4.825,-6.10975 -7.85302,-7.862714 -3.02803,-1.752963 -6.50668,-2.547697 -9.41334,-2.304669 -2.90666,0.243028 -5.24118,1.523783 -7.35371,2.853361 -2.11253,1.329579 -4.00296,2.707906 -5.41906,3.858633 -1.4161,1.150726 -2.35779,2.073786 -3.2995,2.996864 z"
           id="path32"
           inkscape:path-effect="#path-effect33"
           inkscape:original-d="m 336.40734,31.404638 c 0,0 4.31852,-4.797474 6.47779,-7.196211 3.76914,-2.235644 7.53814,-4.471199 11.30721,-6.706798 2.88608,0.36651 5.77204,0.733006 8.65806,1.099508 1.96675,1.296719 3.93342,2.593385 5.90012,3.890078 2.25061,2.525486 4.50114,5.050871 6.75171,7.576306 2.0645,3.329282 4.12892,6.658431 6.19339,9.987646 0.89973,2.545616 1.7994,5.091076 2.69913,7.636693 1.03905,2.657089 2.07805,5.314069 3.11707,7.971101 1.1534,5.274386 2.30674,10.548561 3.46012,15.822841 0.50674,6.309406 1.5202,18.927838 1.5202,18.927838 0,0 -1.98117,-11.501231 -2.97175,-17.251847 -0.79489,-3.673747 -1.58975,-7.347346 -2.38463,-11.021019 -1.262,-3.885628 -2.52396,-7.7711 -3.78594,-11.656651 -1.91828,-4.086149 -3.83648,-8.172134 -5.75472,-12.258202 -2.57732,-2.711216 -5.15454,-5.422324 -7.73181,-8.133487 -3.47878,-0.794764 -6.95743,-1.589497 -10.43614,-2.384246 -2.33461,1.280804 -4.66913,2.561557 -7.00369,3.842336 -1.8905,1.378382 -3.78093,2.756708 -5.6714,4.135063 -0.94173,0.923097 -2.82513,2.769235 -2.82513,2.769235 z"
           sodipodi:nodetypes="ccccccccccccccccccccc" />
      </g>
      <path
         style="fill:#00a4ca;fill-opacity:1;stroke:none;stroke-width:0.183;stroke-linejoin:round;stroke-miterlimit:3.3;stroke-dasharray:none;stroke-opacity:1;paint-order:markers stroke fill"
         d="m 312.78112,156.21207 c -1.0753,-9.63723 -2.15058,-19.27427 -2.46577,-27.45613 -0.31519,-8.18186 0.12973,-14.90801 0.75118,-20.97484 0.62144,-6.06682 1.41932,-11.473697 2.48961,-17.304719 1.07028,-5.831021 2.41288,-12.085726 3.73505,-17.158774 1.32217,-5.073048 2.62372,-8.963797 3.88788,-12.464185 1.26416,-3.500387 2.49042,-6.60902 3.71681,-9.717962 1.2263,1.354317 2.4526,2.708633 3.85982,3.400002 1.40722,0.691369 2.9953,0.719788 4.58341,0.748208 -1.02738,2.440383 -2.05475,4.880767 -3.31304,8.033551 -1.25829,3.152784 -2.74743,7.017815 -3.95951,11.291196 -1.21207,4.273382 -2.14702,8.954846 -2.97349,13.340059 -0.82648,4.385214 -1.54442,8.47383 -2.17878,13.318964 -0.63436,4.84514 -1.18508,10.44631 -1.34401,16.31469 -0.15893,5.86838 0.0739,12.00361 0.32907,17.57616 0.25515,5.57255 0.53255,10.5821 0.84173,13.89826 0.30918,3.31615 0.65012,4.93876 0.99106,6.5614 -1.58327,0.059 -3.16654,0.11797 -4.65839,0.21699 -1.49185,0.099 -2.89223,0.23808 -4.29263,0.37713 z"
         id="path10"
         inkscape:path-effect="#path-effect10"
         inkscape:original-d="m 312.78112,156.21207 c 0,0 -2.15058,-19.27427 -3.2259,-28.9117 0.44494,-6.72629 0.88986,-13.45244 1.33481,-20.17887 0.79794,-5.40722 1.59582,-10.814098 2.39376,-16.221309 1.34263,-6.254831 2.68523,-12.509537 4.02789,-18.764494 1.30168,-3.891138 2.60323,-7.781887 3.90504,-11.673411 1.22651,-3.109251 3.67916,-9.326826 3.67916,-9.326826 0,0 2.4526,2.708633 3.6789,4.06295 1.58814,0.02842 4.76433,0.08526 4.76433,0.08526 0,0 -2.05475,4.880768 -3.08213,7.32115 -1.4892,3.865185 -2.97834,7.730216 -4.46751,11.595325 -0.93499,4.681652 -1.86993,9.363117 -2.80489,14.044676 -0.71799,4.088868 -1.43593,8.177484 -2.15391,12.266349 -0.55074,5.60141 -1.10146,11.20258 -1.65219,16.80386 0.23287,6.13548 0.46573,12.27071 0.6986,18.40607 0.27742,5.00974 0.55482,10.01929 0.83223,15.02893 0.34095,1.62267 1.02283,4.86792 1.02283,4.86792 0,0 -3.16654,0.11797 -4.74981,0.17696 -1.40043,0.13906 -4.20121,0.41716 -4.20121,0.41716 z"
         sodipodi:nodetypes="ccccccccccccccccccc"
         transform="translate(216.12784,-3.4789378)" />
    </g>
  </g>
</svg>
